<svg xmlns="http://www.w3.org/2000/svg" viewBox="0 0 128 128" width="128" height="128">
  <g stroke="#2B2D42" stroke-width="3.2" stroke-linejoin="round" stroke-linecap="round">
    <!-- 폴더 뒷판 -->
    <path d="M18 54 h26 l8 8 h54 a4 4 0 0 1 4 4 v38 a4 4 0 0 1 -4 4 H22 a4 4 0 0 1 -4 -4 V58 a4 4 0 0 1 4 -4 z" fill="#F2B22E"/>

    <!-- 파란 책 (폴더 안, 앞판 뒤에 반쯤) -->
    <g transform="rotate(-8 52 84)">
      <rect x="37" y="60" width="30" height="42" rx="3" fill="#4C9BE8"/>
      <rect x="37" y="60" width="7" height="42" rx="2" fill="#EAF4FC"/>
      <rect x="49" y="82" width="14" height="5" rx="2" fill="#BFE0F5"/>
    </g>

    <!-- 빨간 책 -->
    <g transform="rotate(-22 50 46)">
      <rect x="35" y="24" width="29" height="42" rx="3" fill="#EA4B54"/>
      <rect x="35" y="24" width="7" height="42" rx="2" fill="#FDE9E6"/>
      <rect x="47" y="47" width="13" height="5" rx="2" fill="#FBE0A6"/>
    </g>

    <!-- 초록 책 -->
    <g transform="rotate(-4 90 34)">
      <rect x="78" y="16" width="24" height="36" rx="3" fill="#37B34A"/>
      <rect x="78" y="16" width="6" height="36" rx="2" fill="#E7F7E2"/>
      <rect x="88" y="40" width="10" height="4.5" rx="2" fill="#A8E063"/>
    </g>

    <!-- 보라 책 -->
    <g transform="rotate(18 100 62)">
      <rect x="86" y="44" width="27" height="40" rx="3" fill="#8B5CF6"/>
      <rect x="86" y="44" width="7" height="40" rx="2" fill="#EFE9FD"/>
      <path d="M98 62 h11 M98 69 h11" stroke="#C9B6F2" stroke-width="3"/>
    </g>

    <!-- 폴더 앞판 -->
    <path d="M14 70 h96 l-6 40 a4 4 0 0 1 -4 3 H24 a4 4 0 0 1 -4 -3 z" fill="#FFD166"/>
  </g>
</svg>
